M48
; DRILL file {KiCad (5.1.8)-1} date 02/17/21 01:34:59
; FORMAT={-:-/ absolute / inch / decimal}
; #@! TF.CreationDate,2021-02-17T01:34:59+08:00
; #@! TF.GenerationSoftware,Kicad,Pcbnew,(5.1.8)-1
; #@! TF.FileFunction,Plated,1,2,PTH
FMAT,2
INCH
T1C0.0591
%
G90
G05
T1
G00X4.7244Y-4.0064
M15
G01X4.7244Y-3.8686
M16
G05
G00X4.6555Y-3.9375
M15
G01X4.7933Y-3.9375
M16
G05
G00X0.7874Y-2.8814
M15
G01X0.7874Y-2.7436
M16
G05
G00X0.7185Y-2.8125
M15
G01X0.8563Y-2.8125
M16
G05
G00X-0.0689Y-2.8125
M15
G01X0.0689Y-2.8125
M16
G05
G00X0.0Y-2.8814
M15
G01X0.0Y-2.7436
M16
G05
G00X2.2933Y-5.0625
M15
G01X2.4311Y-5.0625
M16
G05
G00X2.3622Y-5.1314
M15
G01X2.3622Y-4.9936
M16
G05
G00X2.2933Y-1.6875
M15
G01X2.4311Y-1.6875
M16
G05
G00X2.3622Y-1.7564
M15
G01X2.3622Y-1.6186
M16
G05
G00X3.8681Y-1.6875
M15
G01X4.0059Y-1.6875
M16
G05
G00X3.937Y-1.7564
M15
G01X3.937Y-1.6186
M16
G05
G00X5.5118Y-5.1314
M15
G01X5.5118Y-4.9936
M16
G05
G00X5.4429Y-5.0625
M15
G01X5.5807Y-5.0625
M16
G05
G00X3.1496Y-0.6314
M15
G01X3.1496Y-0.4936
M16
G05
G00X3.0807Y-0.5625
M15
G01X3.2185Y-0.5625
M16
G05
G00X6.2992Y-5.1314
M15
G01X6.2992Y-4.9936
M16
G05
G00X6.2303Y-5.0625
M15
G01X6.3681Y-5.0625
M16
G05
G00X6.2303Y-0.5625
M15
G01X6.3681Y-0.5625
M16
G05
G00X6.2992Y-0.6314
M15
G01X6.2992Y-0.4936
M16
G05
G00X4.7244Y-1.7564
M15
G01X4.7244Y-1.6186
M16
G05
G00X4.6555Y-1.6875
M15
G01X4.7933Y-1.6875
M16
G05
G00X3.937Y-4.0064
M15
G01X3.937Y-3.8686
M16
G05
G00X3.8681Y-3.9375
M15
G01X4.0059Y-3.9375
M16
G05
G00X0.7874Y-5.1314
M15
G01X0.7874Y-4.9936
M16
G05
G00X0.7185Y-5.0625
M15
G01X0.8563Y-5.0625
M16
G05
G00X5.5118Y-1.7564
M15
G01X5.5118Y-1.6186
M16
G05
G00X5.4429Y-1.6875
M15
G01X5.5807Y-1.6875
M16
G05
G00X1.5059Y-2.8125
M15
G01X1.6437Y-2.8125
M16
G05
G00X1.5748Y-2.8814
M15
G01X1.5748Y-2.7436
M16
G05
G00X-0.0689Y-3.9375
M15
G01X0.0689Y-3.9375
M16
G05
G00X0.0Y-4.0064
M15
G01X0.0Y-3.8686
M16
G05
G00X3.0807Y-3.9375
M15
G01X3.2185Y-3.9375
M16
G05
G00X3.1496Y-4.0064
M15
G01X3.1496Y-3.8686
M16
G05
G00X4.6555Y-0.5625
M15
G01X4.7933Y-0.5625
M16
G05
G00X4.7244Y-0.6314
M15
G01X4.7244Y-0.4936
M16
G05
G00X1.5748Y-5.1314
M15
G01X1.5748Y-4.9936
M16
G05
G00X1.5059Y-5.0625
M15
G01X1.6437Y-5.0625
M16
G05
G00X4.6555Y-5.0625
M15
G01X4.7933Y-5.0625
M16
G05
G00X4.7244Y-5.1314
M15
G01X4.7244Y-4.9936
M16
G05
G00X0.0Y-0.6314
M15
G01X0.0Y-0.4936
M16
G05
G00X-0.0689Y-0.5625
M15
G01X0.0689Y-0.5625
M16
G05
G00X1.5059Y-1.6875
M15
G01X1.6437Y-1.6875
M16
G05
G00X1.5748Y-1.7564
M15
G01X1.5748Y-1.6186
M16
G05
G00X-0.0689Y-1.6875
M15
G01X0.0689Y-1.6875
M16
G05
G00X0.0Y-1.7564
M15
G01X0.0Y-1.6186
M16
G05
G00X0.7874Y-0.6314
M15
G01X0.7874Y-0.4936
M16
G05
G00X0.7185Y-0.5625
M15
G01X0.8563Y-0.5625
M16
G05
G00X6.2992Y-4.0064
M15
G01X6.2992Y-3.8686
M16
G05
G00X6.2303Y-3.9375
M15
G01X6.3681Y-3.9375
M16
G05
G00X5.4429Y-2.8125
M15
G01X5.5807Y-2.8125
M16
G05
G00X5.5118Y-2.8814
M15
G01X5.5118Y-2.7436
M16
G05
G00X2.3622Y-4.0064
M15
G01X2.3622Y-3.8686
M16
G05
G00X2.2933Y-3.9375
M15
G01X2.4311Y-3.9375
M16
G05
G00X3.8681Y-2.8125
M15
G01X4.0059Y-2.8125
M16
G05
G00X3.937Y-2.8814
M15
G01X3.937Y-2.7436
M16
G05
G00X1.5059Y-0.5625
M15
G01X1.6437Y-0.5625
M16
G05
G00X1.5748Y-0.6314
M15
G01X1.5748Y-0.4936
M16
G05
G00X3.1496Y-5.1314
M15
G01X3.1496Y-4.9936
M16
G05
G00X3.0807Y-5.0625
M15
G01X3.2185Y-5.0625
M16
G05
G00X6.2303Y-1.6875
M15
G01X6.3681Y-1.6875
M16
G05
G00X6.2992Y-1.7564
M15
G01X6.2992Y-1.6186
M16
G05
G00X3.1496Y-1.7564
M15
G01X3.1496Y-1.6186
M16
G05
G00X3.0807Y-1.6875
M15
G01X3.2185Y-1.6875
M16
G05
G00X1.5748Y-4.0064
M15
G01X1.5748Y-3.8686
M16
G05
G00X1.5059Y-3.9375
M15
G01X1.6437Y-3.9375
M16
G05
G00X3.0807Y-2.8125
M15
G01X3.2185Y-2.8125
M16
G05
G00X3.1496Y-2.8814
M15
G01X3.1496Y-2.7436
M16
G05
G00X5.5118Y-4.0064
M15
G01X5.5118Y-3.8686
M16
G05
G00X5.4429Y-3.9375
M15
G01X5.5807Y-3.9375
M16
G05
G00X5.4429Y-0.5625
M15
G01X5.5807Y-0.5625
M16
G05
G00X5.5118Y-0.6314
M15
G01X5.5118Y-0.4936
M16
G05
G00X3.937Y-5.1314
M15
G01X3.937Y-4.9936
M16
G05
G00X3.8681Y-5.0625
M15
G01X4.0059Y-5.0625
M16
G05
G00X0.7874Y-1.7564
M15
G01X0.7874Y-1.6186
M16
G05
G00X0.7185Y-1.6875
M15
G01X0.8563Y-1.6875
M16
G05
G00X0.7874Y-4.0064
M15
G01X0.7874Y-3.8686
M16
G05
G00X0.7185Y-3.9375
M15
G01X0.8563Y-3.9375
M16
G05
G00X2.3622Y-2.8814
M15
G01X2.3622Y-2.7436
M16
G05
G00X2.2933Y-2.8125
M15
G01X2.4311Y-2.8125
M16
G05
G00X6.2992Y-2.8814
M15
G01X6.2992Y-2.7436
M16
G05
G00X6.2303Y-2.8125
M15
G01X6.3681Y-2.8125
M16
G05
G00X3.8681Y-0.5625
M15
G01X4.0059Y-0.5625
M16
G05
G00X3.937Y-0.6314
M15
G01X3.937Y-0.4936
M16
G05
G00X4.7244Y-2.8814
M15
G01X4.7244Y-2.7436
M16
G05
G00X4.6555Y-2.8125
M15
G01X4.7933Y-2.8125
M16
G05
G00X0.0Y-5.1314
M15
G01X0.0Y-4.9936
M16
G05
G00X-0.0689Y-5.0625
M15
G01X0.0689Y-5.0625
M16
G05
G00X2.2933Y-0.5625
M15
G01X2.4311Y-0.5625
M16
G05
G00X2.3622Y-0.6314
M15
G01X2.3622Y-0.4936
M16
G05
T0
M30
