G04 #@! TF.GenerationSoftware,KiCad,Pcbnew,(5.1.8)-1*
G04 #@! TF.CreationDate,2021-02-17T01:33:28+08:00*
G04 #@! TF.ProjectId,LubeStation,4c756265-5374-4617-9469-6f6e2e6b6963,rev?*
G04 #@! TF.SameCoordinates,Original*
G04 #@! TF.FileFunction,Legend,Top*
G04 #@! TF.FilePolarity,Positive*
%FSLAX46Y46*%
G04 Gerber Fmt 4.6, Leading zero omitted, Abs format (unit mm)*
G04 Created by KiCad (PCBNEW (5.1.8)-1) date 2021-02-17 01:33:28*
%MOMM*%
%LPD*%
G01*
G04 APERTURE LIST*
%ADD10C,0.875000*%
G04 APERTURE END LIST*
D10*
X164583333Y36375000D02*
X163416666Y36375000D01*
X163416666Y34541666D02*
X163416666Y38041666D01*
X165083333Y38041666D01*
X168416666Y34541666D02*
X167250000Y36208333D01*
X166416666Y34541666D02*
X166416666Y38041666D01*
X167750000Y38041666D01*
X168083333Y37875000D01*
X168250000Y37708333D01*
X168416666Y37375000D01*
X168416666Y36875000D01*
X168250000Y36541666D01*
X168083333Y36375000D01*
X167750000Y36208333D01*
X166416666Y36208333D01*
X171416666Y36875000D02*
X171416666Y34541666D01*
X170583333Y38208333D02*
X169750000Y35708333D01*
X171916666Y35708333D01*
X160583333Y28416666D02*
X158916666Y28416666D01*
X158916666Y31916666D01*
X161750000Y31916666D02*
X161750000Y29083333D01*
X161916666Y28750000D01*
X162083333Y28583333D01*
X162416666Y28416666D01*
X163083333Y28416666D01*
X163416666Y28583333D01*
X163583333Y28750000D01*
X163750000Y29083333D01*
X163750000Y31916666D01*
X166583333Y30250000D02*
X167083333Y30083333D01*
X167250000Y29916666D01*
X167416666Y29583333D01*
X167416666Y29083333D01*
X167250000Y28750000D01*
X167083333Y28583333D01*
X166750000Y28416666D01*
X165416666Y28416666D01*
X165416666Y31916666D01*
X166583333Y31916666D01*
X166916666Y31750000D01*
X167083333Y31583333D01*
X167250000Y31250000D01*
X167250000Y30916666D01*
X167083333Y30583333D01*
X166916666Y30416666D01*
X166583333Y30250000D01*
X165416666Y30250000D01*
X168916666Y28416666D02*
X168916666Y31916666D01*
X170583333Y28416666D02*
X170583333Y31916666D01*
X172583333Y28416666D01*
X172583333Y31916666D01*
X176083333Y31750000D02*
X175750000Y31916666D01*
X175250000Y31916666D01*
X174750000Y31750000D01*
X174416666Y31416666D01*
X174250000Y31083333D01*
X174083333Y30416666D01*
X174083333Y29916666D01*
X174250000Y29250000D01*
X174416666Y28916666D01*
X174750000Y28583333D01*
X175250000Y28416666D01*
X175583333Y28416666D01*
X176083333Y28583333D01*
X176250000Y28750000D01*
X176250000Y29916666D01*
X175583333Y29916666D01*
X157833333Y22458333D02*
X158333333Y22291666D01*
X159166666Y22291666D01*
X159500000Y22458333D01*
X159666666Y22625000D01*
X159833333Y22958333D01*
X159833333Y23291666D01*
X159666666Y23625000D01*
X159500000Y23791666D01*
X159166666Y23958333D01*
X158500000Y24125000D01*
X158166666Y24291666D01*
X158000000Y24458333D01*
X157833333Y24791666D01*
X157833333Y25125000D01*
X158000000Y25458333D01*
X158166666Y25625000D01*
X158500000Y25791666D01*
X159333333Y25791666D01*
X159833333Y25625000D01*
X160833333Y25791666D02*
X162833333Y25791666D01*
X161833333Y22291666D02*
X161833333Y25791666D01*
X163833333Y23291666D02*
X165500000Y23291666D01*
X163500000Y22291666D02*
X164666666Y25791666D01*
X165833333Y22291666D01*
X166500000Y25791666D02*
X168500000Y25791666D01*
X167500000Y22291666D02*
X167500000Y25791666D01*
X169666666Y22291666D02*
X169666666Y25791666D01*
X172000000Y25791666D02*
X172666666Y25791666D01*
X173000000Y25625000D01*
X173333333Y25291666D01*
X173500000Y24625000D01*
X173500000Y23458333D01*
X173333333Y22791666D01*
X173000000Y22458333D01*
X172666666Y22291666D01*
X172000000Y22291666D01*
X171666666Y22458333D01*
X171333333Y22791666D01*
X171166666Y23458333D01*
X171166666Y24625000D01*
X171333333Y25291666D01*
X171666666Y25625000D01*
X172000000Y25791666D01*
X175000000Y22291666D02*
X175000000Y25791666D01*
X177000000Y22291666D01*
X177000000Y25791666D01*
M02*
