M48
; DRILL file {KiCad (5.1.8)-1} date 02/17/21 09:01:06
; FORMAT={-:-/ absolute / inch / decimal}
; #@! TF.CreationDate,2021-02-17T09:01:06+08:00
; #@! TF.GenerationSoftware,Kicad,Pcbnew,(5.1.8)-1
; #@! TF.FileFunction,Plated,1,2,PTH
FMAT,2
INCH
T1C0.0591
%
G90
G05
T1
G00X1.5059Y-3.9375
M15
G01X1.6437Y-3.9375
M16
G05
G00X1.5748Y-4.0064
M15
G01X1.5748Y-3.8686
M16
G05
G00X1.5059Y-5.0625
M15
G01X1.6437Y-5.0625
M16
G05
G00X1.5748Y-5.1314
M15
G01X1.5748Y-4.9936
M16
G05
G00X12.5295Y-3.9375
M15
G01X12.6673Y-3.9375
M16
G05
G00X12.5984Y-4.0064
M15
G01X12.5984Y-3.8686
M16
G05
G00X-0.0689Y-5.0625
M15
G01X0.0689Y-5.0625
M16
G05
G00X0.0Y-5.1314
M15
G01X0.0Y-4.9936
M16
G05
G00X2.3622Y-5.1314
M15
G01X2.3622Y-4.9936
M16
G05
G00X2.2933Y-5.0625
M15
G01X2.4311Y-5.0625
M16
G05
G00X7.0177Y-0.5625
M15
G01X7.1555Y-0.5625
M16
G05
G00X7.0866Y-0.6314
M15
G01X7.0866Y-0.4936
M16
G05
G00X11.811Y-2.8814
M15
G01X11.811Y-2.7436
M16
G05
G00X11.7421Y-2.8125
M15
G01X11.8799Y-2.8125
M16
G05
G00X8.5925Y-3.9375
M15
G01X8.7303Y-3.9375
M16
G05
G00X8.6614Y-4.0064
M15
G01X8.6614Y-3.8686
M16
G05
G00X5.5118Y-1.7564
M15
G01X5.5118Y-1.6186
M16
G05
G00X5.4429Y-1.6875
M15
G01X5.5807Y-1.6875
M16
G05
G00X1.5059Y-2.8125
M15
G01X1.6437Y-2.8125
M16
G05
G00X1.5748Y-2.8814
M15
G01X1.5748Y-2.7436
M16
G05
G00X11.811Y-0.6314
M15
G01X11.811Y-0.4936
M16
G05
G00X11.7421Y-0.5625
M15
G01X11.8799Y-0.5625
M16
G05
G00X9.3799Y-3.9375
M15
G01X9.5177Y-3.9375
M16
G05
G00X9.4488Y-4.0064
M15
G01X9.4488Y-3.8686
M16
G05
G00X1.5059Y-1.6875
M15
G01X1.6437Y-1.6875
M16
G05
G00X1.5748Y-1.7564
M15
G01X1.5748Y-1.6186
M16
G05
G00X10.2362Y-4.0064
M15
G01X10.2362Y-3.8686
M16
G05
G00X10.1673Y-3.9375
M15
G01X10.3051Y-3.9375
M16
G05
G00X10.1673Y-5.0625
M15
G01X10.3051Y-5.0625
M16
G05
G00X10.2362Y-5.1314
M15
G01X10.2362Y-4.9936
M16
G05
G00X7.874Y-5.1314
M15
G01X7.874Y-4.9936
M16
G05
G00X7.8051Y-5.0625
M15
G01X7.9429Y-5.0625
M16
G05
G00X6.2303Y-5.0625
M15
G01X6.3681Y-5.0625
M16
G05
G00X6.2992Y-5.1314
M15
G01X6.2992Y-4.9936
M16
G05
G00X3.1496Y-5.1314
M15
G01X3.1496Y-4.9936
M16
G05
G00X3.0807Y-5.0625
M15
G01X3.2185Y-5.0625
M16
G05
G00X6.2303Y-0.5625
M15
G01X6.3681Y-0.5625
M16
G05
G00X6.2992Y-0.6314
M15
G01X6.2992Y-0.4936
M16
G05
G00X7.0866Y-2.8814
M15
G01X7.0866Y-2.7436
M16
G05
G00X7.0177Y-2.8125
M15
G01X7.1555Y-2.8125
M16
G05
G00X2.3622Y-4.0064
M15
G01X2.3622Y-3.8686
M16
G05
G00X2.2933Y-3.9375
M15
G01X2.4311Y-3.9375
M16
G05
G00X7.874Y-2.8814
M15
G01X7.874Y-2.7436
M16
G05
G00X7.8051Y-2.8125
M15
G01X7.9429Y-2.8125
M16
G05
G00X7.8051Y-3.9375
M15
G01X7.9429Y-3.9375
M16
G05
G00X7.874Y-4.0064
M15
G01X7.874Y-3.8686
M16
G05
G00X13.3169Y-0.5625
M15
G01X13.4547Y-0.5625
M16
G05
G00X13.3858Y-0.6314
M15
G01X13.3858Y-0.4936
M16
G05
G00X8.6614Y-1.7564
M15
G01X8.6614Y-1.6186
M16
G05
G00X8.5925Y-1.6875
M15
G01X8.7303Y-1.6875
M16
G05
G00X7.0177Y-3.9375
M15
G01X7.1555Y-3.9375
M16
G05
G00X7.0866Y-4.0064
M15
G01X7.0866Y-3.8686
M16
G05
G00X4.6555Y-5.0625
M15
G01X4.7933Y-5.0625
M16
G05
G00X4.7244Y-5.1314
M15
G01X4.7244Y-4.9936
M16
G05
G00X0.7874Y-5.1314
M15
G01X0.7874Y-4.9936
M16
G05
G00X0.7185Y-5.0625
M15
G01X0.8563Y-5.0625
M16
G05
G00X9.3799Y-5.0625
M15
G01X9.5177Y-5.0625
M16
G05
G00X9.4488Y-5.1314
M15
G01X9.4488Y-4.9936
M16
G05
G00X4.7244Y-0.6314
M15
G01X4.7244Y-0.4936
M16
G05
G00X4.6555Y-0.5625
M15
G01X4.7933Y-0.5625
M16
G05
G00X3.8681Y-2.8125
M15
G01X4.0059Y-2.8125
M16
G05
G00X3.937Y-2.8814
M15
G01X3.937Y-2.7436
M16
G05
G00X9.4488Y-2.8814
M15
G01X9.4488Y-2.7436
M16
G05
G00X9.3799Y-2.8125
M15
G01X9.5177Y-2.8125
M16
G05
G00X8.5925Y-2.8125
M15
G01X8.7303Y-2.8125
M16
G05
G00X8.6614Y-2.8814
M15
G01X8.6614Y-2.7436
M16
G05
G00X10.2362Y-1.7564
M15
G01X10.2362Y-1.6186
M16
G05
G00X10.1673Y-1.6875
M15
G01X10.3051Y-1.6875
M16
G05
G00X0.7185Y-2.8125
M15
G01X0.8563Y-2.8125
M16
G05
G00X0.7874Y-2.8814
M15
G01X0.7874Y-2.7436
M16
G05
G00X2.3622Y-1.7564
M15
G01X2.3622Y-1.6186
M16
G05
G00X2.2933Y-1.6875
M15
G01X2.4311Y-1.6875
M16
G05
G00X-0.0689Y-1.6875
M15
G01X0.0689Y-1.6875
M16
G05
G00X0.0Y-1.7564
M15
G01X0.0Y-1.6186
M16
G05
G00X7.8051Y-1.6875
M15
G01X7.9429Y-1.6875
M16
G05
G00X7.874Y-1.7564
M15
G01X7.874Y-1.6186
M16
G05
G00X0.7185Y-3.9375
M15
G01X0.8563Y-3.9375
M16
G05
G00X0.7874Y-4.0064
M15
G01X0.7874Y-3.8686
M16
G05
G00X11.811Y-5.1314
M15
G01X11.811Y-4.9936
M16
G05
G00X11.7421Y-5.0625
M15
G01X11.8799Y-5.0625
M16
G05
G00X-0.0689Y-0.5625
M15
G01X0.0689Y-0.5625
M16
G05
G00X0.0Y-0.6314
M15
G01X0.0Y-0.4936
M16
G05
G00X12.5295Y-5.0625
M15
G01X12.6673Y-5.0625
M16
G05
G00X12.5984Y-5.1314
M15
G01X12.5984Y-4.9936
M16
G05
G00X0.7185Y-0.5625
M15
G01X0.8563Y-0.5625
M16
G05
G00X0.7874Y-0.6314
M15
G01X0.7874Y-0.4936
M16
G05
G00X10.9547Y-2.8125
M15
G01X11.0925Y-2.8125
M16
G05
G00X11.0236Y-2.8814
M15
G01X11.0236Y-2.7436
M16
G05
G00X3.0807Y-2.8125
M15
G01X3.2185Y-2.8125
M16
G05
G00X3.1496Y-2.8814
M15
G01X3.1496Y-2.7436
M16
G05
G00X4.7244Y-2.8814
M15
G01X4.7244Y-2.7436
M16
G05
G00X4.6555Y-2.8125
M15
G01X4.7933Y-2.8125
M16
G05
G00X10.9547Y-0.5625
M15
G01X11.0925Y-0.5625
M16
G05
G00X11.0236Y-0.6314
M15
G01X11.0236Y-0.4936
M16
G05
G00X6.2303Y-1.6875
M15
G01X6.3681Y-1.6875
M16
G05
G00X6.2992Y-1.7564
M15
G01X6.2992Y-1.6186
M16
G05
G00X3.0807Y-3.9375
M15
G01X3.2185Y-3.9375
M16
G05
G00X3.1496Y-4.0064
M15
G01X3.1496Y-3.8686
M16
G05
G00X9.4488Y-0.6314
M15
G01X9.4488Y-0.4936
M16
G05
G00X9.3799Y-0.5625
M15
G01X9.5177Y-0.5625
M16
G05
G00X3.937Y-1.7564
M15
G01X3.937Y-1.6186
M16
G05
G00X3.8681Y-1.6875
M15
G01X4.0059Y-1.6875
M16
G05
G00X7.0177Y-1.6875
M15
G01X7.1555Y-1.6875
M16
G05
G00X7.0866Y-1.7564
M15
G01X7.0866Y-1.6186
M16
G05
G00X11.7421Y-3.9375
M15
G01X11.8799Y-3.9375
M16
G05
G00X11.811Y-4.0064
M15
G01X11.811Y-3.8686
M16
G05
G00X5.5118Y-5.1314
M15
G01X5.5118Y-4.9936
M16
G05
G00X5.4429Y-5.0625
M15
G01X5.5807Y-5.0625
M16
G05
G00X7.0177Y-5.0625
M15
G01X7.1555Y-5.0625
M16
G05
G00X7.0866Y-5.1314
M15
G01X7.0866Y-4.9936
M16
G05
G00X3.8681Y-0.5625
M15
G01X4.0059Y-0.5625
M16
G05
G00X3.937Y-0.6314
M15
G01X3.937Y-0.4936
M16
G05
G00X13.3858Y-2.8814
M15
G01X13.3858Y-2.7436
M16
G05
G00X13.3169Y-2.8125
M15
G01X13.4547Y-2.8125
M16
G05
G00X12.5295Y-2.8125
M15
G01X12.6673Y-2.8125
M16
G05
G00X12.5984Y-2.8814
M15
G01X12.5984Y-2.7436
M16
G05
G00X13.3169Y-1.6875
M15
G01X13.4547Y-1.6875
M16
G05
G00X13.3858Y-1.7564
M15
G01X13.3858Y-1.6186
M16
G05
G00X6.2303Y-2.8125
M15
G01X6.3681Y-2.8125
M16
G05
G00X6.2992Y-2.8814
M15
G01X6.2992Y-2.7436
M16
G05
G00X5.4429Y-0.5625
M15
G01X5.5807Y-0.5625
M16
G05
G00X5.5118Y-0.6314
M15
G01X5.5118Y-0.4936
M16
G05
G00X4.6555Y-1.6875
M15
G01X4.7933Y-1.6875
M16
G05
G00X4.7244Y-1.7564
M15
G01X4.7244Y-1.6186
M16
G05
G00X10.2362Y-2.8814
M15
G01X10.2362Y-2.7436
M16
G05
G00X10.1673Y-2.8125
M15
G01X10.3051Y-2.8125
M16
G05
G00X10.2362Y-0.6314
M15
G01X10.2362Y-0.4936
M16
G05
G00X10.1673Y-0.5625
M15
G01X10.3051Y-0.5625
M16
G05
G00X11.0236Y-1.7564
M15
G01X11.0236Y-1.6186
M16
G05
G00X10.9547Y-1.6875
M15
G01X11.0925Y-1.6875
M16
G05
G00X4.7244Y-4.0064
M15
G01X4.7244Y-3.8686
M16
G05
G00X4.6555Y-3.9375
M15
G01X4.7933Y-3.9375
M16
G05
G00X8.5925Y-5.0625
M15
G01X8.7303Y-5.0625
M16
G05
G00X8.6614Y-5.1314
M15
G01X8.6614Y-4.9936
M16
G05
G00X10.9547Y-5.0625
M15
G01X11.0925Y-5.0625
M16
G05
G00X11.0236Y-5.1314
M15
G01X11.0236Y-4.9936
M16
G05
G00X2.3622Y-0.6314
M15
G01X2.3622Y-0.4936
M16
G05
G00X2.2933Y-0.5625
M15
G01X2.4311Y-0.5625
M16
G05
G00X1.5059Y-0.5625
M15
G01X1.6437Y-0.5625
M16
G05
G00X1.5748Y-0.6314
M15
G01X1.5748Y-0.4936
M16
G05
G00X5.5118Y-2.8814
M15
G01X5.5118Y-2.7436
M16
G05
G00X5.4429Y-2.8125
M15
G01X5.5807Y-2.8125
M16
G05
G00X10.9547Y-3.9375
M15
G01X11.0925Y-3.9375
M16
G05
G00X11.0236Y-4.0064
M15
G01X11.0236Y-3.8686
M16
G05
G00X3.1496Y-1.7564
M15
G01X3.1496Y-1.6186
M16
G05
G00X3.0807Y-1.6875
M15
G01X3.2185Y-1.6875
M16
G05
G00X-0.0689Y-3.9375
M15
G01X0.0689Y-3.9375
M16
G05
G00X0.0Y-4.0064
M15
G01X0.0Y-3.8686
M16
G05
G00X7.874Y-0.6314
M15
G01X7.874Y-0.4936
M16
G05
G00X7.8051Y-0.5625
M15
G01X7.9429Y-0.5625
M16
G05
G00X0.7185Y-1.6875
M15
G01X0.8563Y-1.6875
M16
G05
G00X0.7874Y-1.7564
M15
G01X0.7874Y-1.6186
M16
G05
G00X3.8681Y-3.9375
M15
G01X4.0059Y-3.9375
M16
G05
G00X3.937Y-4.0064
M15
G01X3.937Y-3.8686
M16
G05
G00X11.811Y-1.7564
M15
G01X11.811Y-1.6186
M16
G05
G00X11.7421Y-1.6875
M15
G01X11.8799Y-1.6875
M16
G05
G00X6.2992Y-4.0064
M15
G01X6.2992Y-3.8686
M16
G05
G00X6.2303Y-3.9375
M15
G01X6.3681Y-3.9375
M16
G05
G00X3.8681Y-5.0625
M15
G01X4.0059Y-5.0625
M16
G05
G00X3.937Y-5.1314
M15
G01X3.937Y-4.9936
M16
G05
G00X13.3858Y-5.1314
M15
G01X13.3858Y-4.9936
M16
G05
G00X13.3169Y-5.0625
M15
G01X13.4547Y-5.0625
M16
G05
G00X8.6614Y-0.6314
M15
G01X8.6614Y-0.4936
M16
G05
G00X8.5925Y-0.5625
M15
G01X8.7303Y-0.5625
M16
G05
G00X3.1496Y-0.6314
M15
G01X3.1496Y-0.4936
M16
G05
G00X3.0807Y-0.5625
M15
G01X3.2185Y-0.5625
M16
G05
G00X-0.0689Y-2.8125
M15
G01X0.0689Y-2.8125
M16
G05
G00X0.0Y-2.8814
M15
G01X0.0Y-2.7436
M16
G05
G00X13.3858Y-4.0064
M15
G01X13.3858Y-3.8686
M16
G05
G00X13.3169Y-3.9375
M15
G01X13.4547Y-3.9375
M16
G05
G00X9.4488Y-1.7564
M15
G01X9.4488Y-1.6186
M16
G05
G00X9.3799Y-1.6875
M15
G01X9.5177Y-1.6875
M16
G05
G00X2.2933Y-2.8125
M15
G01X2.4311Y-2.8125
M16
G05
G00X2.3622Y-2.8814
M15
G01X2.3622Y-2.7436
M16
G05
G00X12.5295Y-0.5625
M15
G01X12.6673Y-0.5625
M16
G05
G00X12.5984Y-0.6314
M15
G01X12.5984Y-0.4936
M16
G05
G00X5.5118Y-4.0064
M15
G01X5.5118Y-3.8686
M16
G05
G00X5.4429Y-3.9375
M15
G01X5.5807Y-3.9375
M16
G05
G00X12.5295Y-1.6875
M15
G01X12.6673Y-1.6875
M16
G05
G00X12.5984Y-1.7564
M15
G01X12.5984Y-1.6186
M16
G05
T0
M30
